<svg width="17" height="18" viewBox="0 0 17 18" fill="none" xmlns="http://www.w3.org/2000/svg">
<path fill-rule="evenodd" clip-rule="evenodd" d="M8.33333 0.666626C12.9283 0.666626 16.6667 4.40496 16.6667 8.99996C16.6667 13.595 12.9283 17.3333 8.33333 17.3333C3.73833 17.3333 0 13.595 0 8.99996C0 4.40496 3.73833 0.666626 8.33333 0.666626ZM8.33333 1.91663C4.4275 1.91663 1.25 5.09413 1.25 8.99996C1.25 12.9058 4.4275 16.0833 8.33333 16.0833C12.2392 16.0833 15.4167 12.9058 15.4167 8.99996C15.4167 5.09413 12.2392 1.91663 8.33333 1.91663ZM8.051 4.91279C8.39683 4.91279 8.676 5.19279 8.676 5.53779V9.22279L11.5135 10.9145C11.8093 11.092 11.9068 11.4753 11.7302 11.772C11.6127 11.9678 11.4052 12.077 11.1927 12.077C11.0835 12.077 10.9735 12.0486 10.8727 11.9895L7.731 10.1153C7.54267 10.002 7.426 9.79779 7.426 9.57779V5.53779C7.426 5.19279 7.706 4.91279 8.051 4.91279Z" fill="#012269"/>
</svg>
